<mxfile host="app.diagrams.net" modified="2024-07-15T15:07:44.684Z" agent="Mozilla/5.0 (Windows NT 10.0; Win64; x64; rv:129.0) Gecko/20100101 Firefox/129.0" etag="-Csi40mQUFz8H8_E6Mnw" version="24.4.3" type="github">
  <diagram id="C5RBs43oDa-KdzZeNtuy" name="Page-1">
    <mxGraphModel dx="3033" dy="1148" grid="1" gridSize="10" guides="1" tooltips="1" connect="1" arrows="1" fold="1" page="1" pageScale="1" pageWidth="827" pageHeight="1169" math="0" shadow="0">
      <root>
        <mxCell id="WIyWlLk6GJQsqaUBKTNV-0" />
        <mxCell id="WIyWlLk6GJQsqaUBKTNV-1" parent="WIyWlLk6GJQsqaUBKTNV-0" />
        <mxCell id="PVl7Sja935Xg6KJZl59h-0" value="Process" style="rounded=1;whiteSpace=wrap;html=1;absoluteArcSize=1;arcSize=14;strokeWidth=3;fillColor=#0080ff;fontSize=20;" vertex="1" parent="WIyWlLk6GJQsqaUBKTNV-1">
          <mxGeometry x="-693.75" y="45" width="200" height="100" as="geometry" />
        </mxCell>
        <mxCell id="PVl7Sja935Xg6KJZl59h-1" value="&lt;div style=&quot;font-size: 20px;&quot;&gt;Terminator&lt;/div&gt;" style="strokeWidth=3;html=1;shape=mxgraph.flowchart.terminator;whiteSpace=wrap;fillColor=#ff0000;fillStyle=auto;fontSize=20;" vertex="1" parent="WIyWlLk6GJQsqaUBKTNV-1">
          <mxGeometry x="-693.75" y="205" width="190" height="60" as="geometry" />
        </mxCell>
        <mxCell id="PVl7Sja935Xg6KJZl59h-2" value="Decision" style="strokeWidth=3;html=1;shape=mxgraph.flowchart.decision;whiteSpace=wrap;fillColor=#FFD700;fontSize=20;" vertex="1" parent="WIyWlLk6GJQsqaUBKTNV-1">
          <mxGeometry x="-695" y="295" width="190" height="100" as="geometry" />
        </mxCell>
        <mxCell id="PVl7Sja935Xg6KJZl59h-3" value="Document" style="shape=document;whiteSpace=wrap;html=1;boundedLbl=1;fillColor=#2ECC40;fontSize=20;strokeWidth=3;" vertex="1" parent="WIyWlLk6GJQsqaUBKTNV-1">
          <mxGeometry x="-360.01" y="205" width="200" height="80" as="geometry" />
        </mxCell>
        <mxCell id="PVl7Sja935Xg6KJZl59h-4" value="Predefined process" style="verticalLabelPosition=bottom;verticalAlign=top;html=1;shape=process;whiteSpace=wrap;rounded=1;size=0.14;arcSize=6;fillColor=#B266FF;fontSize=20;strokeWidth=3;" vertex="1" parent="WIyWlLk6GJQsqaUBKTNV-1">
          <mxGeometry x="-697.5" y="435" width="200" height="80" as="geometry" />
        </mxCell>
        <mxCell id="PVl7Sja935Xg6KJZl59h-5" value="Data" style="shape=parallelogram;html=1;strokeWidth=3;perimeter=parallelogramPerimeter;whiteSpace=wrap;rounded=1;arcSize=12;size=0.23;fillColor=#CC6600;fontSize=20;" vertex="1" parent="WIyWlLk6GJQsqaUBKTNV-1">
          <mxGeometry x="-697.5" y="575" width="200" height="70" as="geometry" />
        </mxCell>
        <mxCell id="PVl7Sja935Xg6KJZl59h-6" value="Stored Data" style="strokeWidth=3;html=1;shape=mxgraph.flowchart.stored_data;whiteSpace=wrap;fillColor=#FF9933;fontSize=20;" vertex="1" parent="WIyWlLk6GJQsqaUBKTNV-1">
          <mxGeometry x="-700" y="695" width="200" height="80" as="geometry" />
        </mxCell>
        <mxCell id="PVl7Sja935Xg6KJZl59h-7" value="Internal Storage" style="shape=internalStorage;whiteSpace=wrap;html=1;backgroundOutline=1;fillColor=#AAAAAA;fontSize=20;strokeWidth=3;" vertex="1" parent="WIyWlLk6GJQsqaUBKTNV-1">
          <mxGeometry x="-680" y="1045" width="160" height="80" as="geometry" />
        </mxCell>
        <mxCell id="PVl7Sja935Xg6KJZl59h-8" value="Direct&amp;nbsp; Data" style="strokeWidth=3;html=1;shape=mxgraph.flowchart.direct_data;whiteSpace=wrap;fillColor=#ec6d37;fontSize=20;" vertex="1" parent="WIyWlLk6GJQsqaUBKTNV-1">
          <mxGeometry x="-675" y="935" width="150" height="80" as="geometry" />
        </mxCell>
        <mxCell id="PVl7Sja935Xg6KJZl59h-9" value="Manual Input" style="shape=manualInput;whiteSpace=wrap;html=1;fillColor=#64A69A;fontSize=20;strokeWidth=3;" vertex="1" parent="WIyWlLk6GJQsqaUBKTNV-1">
          <mxGeometry x="-367.01" y="445" width="190" height="90" as="geometry" />
        </mxCell>
        <mxCell id="PVl7Sja935Xg6KJZl59h-10" value="Display" style="shape=display;whiteSpace=wrap;html=1;fillColor=#00ea93;fontSize=20;strokeWidth=3;" vertex="1" parent="WIyWlLk6GJQsqaUBKTNV-1">
          <mxGeometry x="-345.01" y="315" width="168" height="60" as="geometry" />
        </mxCell>
        <mxCell id="PVl7Sja935Xg6KJZl59h-11" value="Manual Operation" style="verticalLabelPosition=middle;verticalAlign=middle;html=1;shape=trapezoid;perimeter=trapezoidPerimeter;whiteSpace=wrap;size=0.23;arcSize=10;flipV=1;labelPosition=center;align=center;fillColor=#85afbc;fontSize=20;strokeWidth=3;" vertex="1" parent="WIyWlLk6GJQsqaUBKTNV-1">
          <mxGeometry x="-359.51" y="595" width="175" height="80" as="geometry" />
        </mxCell>
        <mxCell id="PVl7Sja935Xg6KJZl59h-12" value="Preparation" style="verticalLabelPosition=bottom;verticalAlign=top;html=1;shape=hexagon;perimeter=hexagonPerimeter2;arcSize=6;size=0.27;fillColor=#617aa9;fontSize=20;strokeWidth=3;" vertex="1" parent="WIyWlLk6GJQsqaUBKTNV-1">
          <mxGeometry x="-371.38" y="725" width="181.25" height="80" as="geometry" />
        </mxCell>
        <mxCell id="PVl7Sja935Xg6KJZl59h-13" value="Parallel Mode" style="verticalLabelPosition=bottom;verticalAlign=top;html=1;shape=mxgraph.flowchart.parallel_mode;pointerEvents=1;strokeWidth=3;strokeColor=#008000;fontSize=20;" vertex="1" parent="WIyWlLk6GJQsqaUBKTNV-1">
          <mxGeometry x="-375.76" y="863" width="190" height="80" as="geometry" />
        </mxCell>
        <mxCell id="PVl7Sja935Xg6KJZl59h-15" value="On-Page Reference" style="verticalLabelPosition=bottom;verticalAlign=top;html=1;shape=mxgraph.flowchart.on-page_reference;fillColor=#c0c0c0;fontSize=20;strokeWidth=3;" vertex="1" parent="WIyWlLk6GJQsqaUBKTNV-1">
          <mxGeometry x="-420" y="1015" width="101.25" height="100" as="geometry" />
        </mxCell>
        <mxCell id="PVl7Sja935Xg6KJZl59h-16" value="Off-Page Reference" style="verticalLabelPosition=bottom;verticalAlign=top;html=1;shape=offPageConnector;rounded=0;size=0.5;fillColor=#c5c589;fontSize=20;strokeWidth=3;" vertex="1" parent="WIyWlLk6GJQsqaUBKTNV-1">
          <mxGeometry x="-210" y="1005" width="105.62" height="110" as="geometry" />
        </mxCell>
        <mxCell id="PVl7Sja935Xg6KJZl59h-17" value="Sequential &lt;br style=&quot;font-size: 20px;&quot;&gt;Data" style="strokeWidth=3;html=1;shape=mxgraph.flowchart.sequential_data;whiteSpace=wrap;fillColor=#EE894D;fontSize=20;" vertex="1" parent="WIyWlLk6GJQsqaUBKTNV-1">
          <mxGeometry x="-650" y="805" width="100" height="100" as="geometry" />
        </mxCell>
        <mxCell id="PVl7Sja935Xg6KJZl59h-20" value="" style="edgeStyle=orthogonalEdgeStyle;rounded=0;orthogonalLoop=1;jettySize=auto;html=1;strokeWidth=3;" edge="1" parent="WIyWlLk6GJQsqaUBKTNV-1" source="PVl7Sja935Xg6KJZl59h-18" target="PVl7Sja935Xg6KJZl59h-19">
          <mxGeometry relative="1" as="geometry" />
        </mxCell>
        <mxCell id="PVl7Sja935Xg6KJZl59h-18" value="Start" style="strokeWidth=3;html=1;shape=mxgraph.flowchart.terminator;whiteSpace=wrap;fillColor=#ff0000;fillStyle=auto;fontSize=20;" vertex="1" parent="WIyWlLk6GJQsqaUBKTNV-1">
          <mxGeometry x="280" y="10" width="190" height="45" as="geometry" />
        </mxCell>
        <mxCell id="PVl7Sja935Xg6KJZl59h-33" value="" style="edgeStyle=orthogonalEdgeStyle;rounded=0;orthogonalLoop=1;jettySize=auto;html=1;strokeWidth=3;" edge="1" parent="WIyWlLk6GJQsqaUBKTNV-1" source="PVl7Sja935Xg6KJZl59h-19" target="PVl7Sja935Xg6KJZl59h-32">
          <mxGeometry relative="1" as="geometry" />
        </mxCell>
        <mxCell id="PVl7Sja935Xg6KJZl59h-19" value="MCU Initialization + Boot Sequence" style="verticalLabelPosition=middle;verticalAlign=middle;html=1;shape=process;whiteSpace=wrap;rounded=1;size=0.14;arcSize=6;fillColor=#B266FF;fontSize=20;strokeWidth=3;labelPosition=center;align=center;" vertex="1" parent="WIyWlLk6GJQsqaUBKTNV-1">
          <mxGeometry x="260" y="80" width="230" height="65" as="geometry" />
        </mxCell>
        <mxCell id="PVl7Sja935Xg6KJZl59h-23" value="Loop Limit" style="shape=loopLimit;whiteSpace=wrap;html=1;fillColor=#ff6600;fontSize=20;strokeWidth=3;" vertex="1" parent="WIyWlLk6GJQsqaUBKTNV-1">
          <mxGeometry x="-348.76" y="45" width="200" height="100" as="geometry" />
        </mxCell>
        <mxCell id="PVl7Sja935Xg6KJZl59h-58" value="" style="edgeStyle=orthogonalEdgeStyle;rounded=0;orthogonalLoop=1;jettySize=auto;html=1;strokeWidth=3;endArrow=diamondThin;endFill=1;" edge="1" parent="WIyWlLk6GJQsqaUBKTNV-1" source="PVl7Sja935Xg6KJZl59h-24" target="PVl7Sja935Xg6KJZl59h-28">
          <mxGeometry relative="1" as="geometry" />
        </mxCell>
        <mxCell id="PVl7Sja935Xg6KJZl59h-24" value="Main loop() Begin" style="shape=loopLimit;whiteSpace=wrap;html=1;fillColor=#ff6600;fontSize=20;strokeWidth=3;" vertex="1" parent="WIyWlLk6GJQsqaUBKTNV-1">
          <mxGeometry x="275" y="265" width="200" height="60" as="geometry" />
        </mxCell>
        <mxCell id="PVl7Sja935Xg6KJZl59h-27" style="edgeStyle=elbowEdgeStyle;rounded=0;orthogonalLoop=1;jettySize=auto;html=1;entryX=0;entryY=0.5;entryDx=0;entryDy=0;exitX=0;exitY=0.5;exitDx=0;exitDy=0;strokeWidth=3;" edge="1" parent="WIyWlLk6GJQsqaUBKTNV-1" source="PVl7Sja935Xg6KJZl59h-26" target="PVl7Sja935Xg6KJZl59h-24">
          <mxGeometry relative="1" as="geometry">
            <Array as="points">
              <mxPoint x="220" y="699" />
            </Array>
          </mxGeometry>
        </mxCell>
        <mxCell id="PVl7Sja935Xg6KJZl59h-26" value="Main loop() Finish" style="shape=loopLimit;whiteSpace=wrap;html=1;fillColor=#ff6600;fontSize=20;strokeWidth=3;" vertex="1" parent="WIyWlLk6GJQsqaUBKTNV-1">
          <mxGeometry x="275" y="1079" width="200" height="60" as="geometry" />
        </mxCell>
        <mxCell id="PVl7Sja935Xg6KJZl59h-59" value="" style="edgeStyle=orthogonalEdgeStyle;rounded=0;orthogonalLoop=1;jettySize=auto;html=1;strokeWidth=3;endArrow=diamondThin;endFill=1;" edge="1" parent="WIyWlLk6GJQsqaUBKTNV-1" source="PVl7Sja935Xg6KJZl59h-28" target="PVl7Sja935Xg6KJZl59h-51">
          <mxGeometry relative="1" as="geometry" />
        </mxCell>
        <mxCell id="PVl7Sja935Xg6KJZl59h-85" value="" style="edgeStyle=orthogonalEdgeStyle;rounded=0;orthogonalLoop=1;jettySize=auto;html=1;endArrow=oval;endFill=1;strokeWidth=3;dashed=1;dashPattern=1 2;" edge="1" parent="WIyWlLk6GJQsqaUBKTNV-1" source="PVl7Sja935Xg6KJZl59h-28" target="PVl7Sja935Xg6KJZl59h-76">
          <mxGeometry relative="1" as="geometry" />
        </mxCell>
        <mxCell id="PVl7Sja935Xg6KJZl59h-28" value="Sensor Data Acquisition" style="rounded=1;whiteSpace=wrap;html=1;absoluteArcSize=1;arcSize=14;strokeWidth=3;fillColor=#0080ff;fontSize=20;" vertex="1" parent="WIyWlLk6GJQsqaUBKTNV-1">
          <mxGeometry x="275" y="359" width="200" height="60" as="geometry" />
        </mxCell>
        <mxCell id="PVl7Sja935Xg6KJZl59h-34" value="" style="edgeStyle=orthogonalEdgeStyle;rounded=0;orthogonalLoop=1;jettySize=auto;html=1;strokeWidth=3;" edge="1" parent="WIyWlLk6GJQsqaUBKTNV-1" source="PVl7Sja935Xg6KJZl59h-32" target="PVl7Sja935Xg6KJZl59h-24">
          <mxGeometry relative="1" as="geometry" />
        </mxCell>
        <mxCell id="PVl7Sja935Xg6KJZl59h-73" value="" style="edgeStyle=orthogonalEdgeStyle;rounded=0;orthogonalLoop=1;jettySize=auto;html=1;strokeWidth=3;endArrow=oval;endFill=1;dashed=1;dashPattern=1 1;" edge="1" parent="WIyWlLk6GJQsqaUBKTNV-1" source="PVl7Sja935Xg6KJZl59h-32" target="PVl7Sja935Xg6KJZl59h-72">
          <mxGeometry relative="1" as="geometry" />
        </mxCell>
        <mxCell id="PVl7Sja935Xg6KJZl59h-32" value="&lt;div&gt;Program&amp;nbsp;&lt;/div&gt;&lt;div&gt;setup()&lt;br&gt;&lt;/div&gt;" style="verticalLabelPosition=middle;verticalAlign=middle;html=1;shape=hexagon;perimeter=hexagonPerimeter2;arcSize=6;size=0.27;fillColor=#617aa9;fontSize=20;strokeWidth=3;labelPosition=center;align=center;" vertex="1" parent="WIyWlLk6GJQsqaUBKTNV-1">
          <mxGeometry x="280" y="170" width="190" height="70" as="geometry" />
        </mxCell>
        <mxCell id="PVl7Sja935Xg6KJZl59h-60" value="" style="edgeStyle=orthogonalEdgeStyle;rounded=0;orthogonalLoop=1;jettySize=auto;html=1;strokeWidth=3;endArrow=diamondThin;endFill=1;" edge="1" parent="WIyWlLk6GJQsqaUBKTNV-1" source="PVl7Sja935Xg6KJZl59h-51" target="PVl7Sja935Xg6KJZl59h-52">
          <mxGeometry relative="1" as="geometry" />
        </mxCell>
        <mxCell id="PVl7Sja935Xg6KJZl59h-86" value="" style="edgeStyle=orthogonalEdgeStyle;rounded=0;orthogonalLoop=1;jettySize=auto;html=1;strokeWidth=3;dashed=1;dashPattern=1 2;endArrow=oval;endFill=1;" edge="1" parent="WIyWlLk6GJQsqaUBKTNV-1" source="PVl7Sja935Xg6KJZl59h-51" target="PVl7Sja935Xg6KJZl59h-78">
          <mxGeometry relative="1" as="geometry" />
        </mxCell>
        <mxCell id="PVl7Sja935Xg6KJZl59h-51" value="Data Processing" style="rounded=1;whiteSpace=wrap;html=1;absoluteArcSize=1;arcSize=14;strokeWidth=3;fillColor=#0080ff;fontSize=20;" vertex="1" parent="WIyWlLk6GJQsqaUBKTNV-1">
          <mxGeometry x="275" y="449" width="200" height="60" as="geometry" />
        </mxCell>
        <mxCell id="PVl7Sja935Xg6KJZl59h-61" value="" style="edgeStyle=orthogonalEdgeStyle;rounded=0;orthogonalLoop=1;jettySize=auto;html=1;strokeWidth=3;endArrow=diamondThin;endFill=1;" edge="1" parent="WIyWlLk6GJQsqaUBKTNV-1" source="PVl7Sja935Xg6KJZl59h-52" target="PVl7Sja935Xg6KJZl59h-53">
          <mxGeometry relative="1" as="geometry" />
        </mxCell>
        <mxCell id="PVl7Sja935Xg6KJZl59h-87" value="" style="edgeStyle=orthogonalEdgeStyle;rounded=0;orthogonalLoop=1;jettySize=auto;html=1;strokeWidth=3;dashed=1;dashPattern=1 2;endArrow=oval;endFill=1;" edge="1" parent="WIyWlLk6GJQsqaUBKTNV-1" source="PVl7Sja935Xg6KJZl59h-52" target="PVl7Sja935Xg6KJZl59h-79">
          <mxGeometry relative="1" as="geometry" />
        </mxCell>
        <mxCell id="PVl7Sja935Xg6KJZl59h-52" value="Control Logic" style="rounded=1;whiteSpace=wrap;html=1;absoluteArcSize=1;arcSize=14;strokeWidth=3;fillColor=#0080ff;fontSize=20;" vertex="1" parent="WIyWlLk6GJQsqaUBKTNV-1">
          <mxGeometry x="275" y="539" width="200" height="60" as="geometry" />
        </mxCell>
        <mxCell id="PVl7Sja935Xg6KJZl59h-62" value="" style="edgeStyle=orthogonalEdgeStyle;rounded=0;orthogonalLoop=1;jettySize=auto;html=1;entryX=0.5;entryY=0;entryDx=0;entryDy=0;strokeWidth=3;endArrow=diamondThin;endFill=1;" edge="1" parent="WIyWlLk6GJQsqaUBKTNV-1" source="PVl7Sja935Xg6KJZl59h-53" target="PVl7Sja935Xg6KJZl59h-54">
          <mxGeometry relative="1" as="geometry" />
        </mxCell>
        <mxCell id="PVl7Sja935Xg6KJZl59h-88" value="" style="edgeStyle=orthogonalEdgeStyle;rounded=0;orthogonalLoop=1;jettySize=auto;html=1;strokeWidth=3;dashed=1;dashPattern=1 2;endArrow=oval;endFill=1;" edge="1" parent="WIyWlLk6GJQsqaUBKTNV-1" source="PVl7Sja935Xg6KJZl59h-53" target="PVl7Sja935Xg6KJZl59h-80">
          <mxGeometry relative="1" as="geometry" />
        </mxCell>
        <mxCell id="PVl7Sja935Xg6KJZl59h-53" value="Control Actions (Actuation)" style="rounded=1;whiteSpace=wrap;html=1;absoluteArcSize=1;arcSize=14;strokeWidth=3;fillColor=#0080ff;fontSize=20;" vertex="1" parent="WIyWlLk6GJQsqaUBKTNV-1">
          <mxGeometry x="275" y="629" width="200" height="60" as="geometry" />
        </mxCell>
        <mxCell id="PVl7Sja935Xg6KJZl59h-67" style="edgeStyle=orthogonalEdgeStyle;rounded=0;orthogonalLoop=1;jettySize=auto;html=1;entryX=0.5;entryY=0;entryDx=0;entryDy=0;strokeWidth=3;endArrow=diamondThin;endFill=1;" edge="1" parent="WIyWlLk6GJQsqaUBKTNV-1" source="PVl7Sja935Xg6KJZl59h-54" target="PVl7Sja935Xg6KJZl59h-55">
          <mxGeometry relative="1" as="geometry" />
        </mxCell>
        <mxCell id="PVl7Sja935Xg6KJZl59h-89" value="" style="edgeStyle=orthogonalEdgeStyle;rounded=0;orthogonalLoop=1;jettySize=auto;html=1;strokeWidth=3;dashed=1;dashPattern=1 2;endArrow=oval;endFill=1;" edge="1" parent="WIyWlLk6GJQsqaUBKTNV-1" source="PVl7Sja935Xg6KJZl59h-54" target="PVl7Sja935Xg6KJZl59h-81">
          <mxGeometry relative="1" as="geometry" />
        </mxCell>
        <mxCell id="PVl7Sja935Xg6KJZl59h-54" value="System Monitoring and Diagnostics" style="rounded=1;whiteSpace=wrap;html=1;absoluteArcSize=1;arcSize=14;strokeWidth=3;fillColor=#0080ff;fontSize=20;" vertex="1" parent="WIyWlLk6GJQsqaUBKTNV-1">
          <mxGeometry x="275" y="719" width="200" height="60" as="geometry" />
        </mxCell>
        <mxCell id="PVl7Sja935Xg6KJZl59h-65" style="edgeStyle=orthogonalEdgeStyle;rounded=0;orthogonalLoop=1;jettySize=auto;html=1;entryX=0.5;entryY=0;entryDx=0;entryDy=0;strokeWidth=3;endArrow=diamondThin;endFill=1;" edge="1" parent="WIyWlLk6GJQsqaUBKTNV-1" source="PVl7Sja935Xg6KJZl59h-55" target="PVl7Sja935Xg6KJZl59h-56">
          <mxGeometry relative="1" as="geometry" />
        </mxCell>
        <mxCell id="PVl7Sja935Xg6KJZl59h-90" value="" style="edgeStyle=orthogonalEdgeStyle;rounded=0;orthogonalLoop=1;jettySize=auto;html=1;strokeWidth=3;dashed=1;dashPattern=1 2;endArrow=oval;endFill=1;" edge="1" parent="WIyWlLk6GJQsqaUBKTNV-1" source="PVl7Sja935Xg6KJZl59h-55" target="PVl7Sja935Xg6KJZl59h-82">
          <mxGeometry relative="1" as="geometry" />
        </mxCell>
        <mxCell id="PVl7Sja935Xg6KJZl59h-55" value="Logging and Data Storage" style="rounded=1;whiteSpace=wrap;html=1;absoluteArcSize=1;arcSize=14;strokeWidth=3;fillColor=#0080ff;fontSize=20;" vertex="1" parent="WIyWlLk6GJQsqaUBKTNV-1">
          <mxGeometry x="275" y="809" width="200" height="60" as="geometry" />
        </mxCell>
        <mxCell id="PVl7Sja935Xg6KJZl59h-66" value="" style="edgeStyle=orthogonalEdgeStyle;rounded=0;orthogonalLoop=1;jettySize=auto;html=1;strokeWidth=3;endArrow=diamondThin;endFill=1;" edge="1" parent="WIyWlLk6GJQsqaUBKTNV-1" source="PVl7Sja935Xg6KJZl59h-56" target="PVl7Sja935Xg6KJZl59h-57">
          <mxGeometry relative="1" as="geometry" />
        </mxCell>
        <mxCell id="PVl7Sja935Xg6KJZl59h-91" value="" style="edgeStyle=orthogonalEdgeStyle;rounded=0;orthogonalLoop=1;jettySize=auto;html=1;strokeWidth=3;dashed=1;dashPattern=1 2;endArrow=oval;endFill=1;" edge="1" parent="WIyWlLk6GJQsqaUBKTNV-1" source="PVl7Sja935Xg6KJZl59h-56" target="PVl7Sja935Xg6KJZl59h-83">
          <mxGeometry relative="1" as="geometry" />
        </mxCell>
        <mxCell id="PVl7Sja935Xg6KJZl59h-56" value="Communication" style="rounded=1;whiteSpace=wrap;html=1;absoluteArcSize=1;arcSize=14;strokeWidth=3;fillColor=#0080ff;fontSize=20;" vertex="1" parent="WIyWlLk6GJQsqaUBKTNV-1">
          <mxGeometry x="275" y="899" width="200" height="60" as="geometry" />
        </mxCell>
        <mxCell id="PVl7Sja935Xg6KJZl59h-68" value="" style="edgeStyle=orthogonalEdgeStyle;rounded=0;orthogonalLoop=1;jettySize=auto;html=1;strokeWidth=3;endArrow=classic;endFill=1;" edge="1" parent="WIyWlLk6GJQsqaUBKTNV-1" source="PVl7Sja935Xg6KJZl59h-57" target="PVl7Sja935Xg6KJZl59h-26">
          <mxGeometry relative="1" as="geometry" />
        </mxCell>
        <mxCell id="PVl7Sja935Xg6KJZl59h-92" value="" style="edgeStyle=orthogonalEdgeStyle;rounded=0;orthogonalLoop=1;jettySize=auto;html=1;strokeWidth=3;dashed=1;dashPattern=1 2;endArrow=oval;endFill=1;" edge="1" parent="WIyWlLk6GJQsqaUBKTNV-1" source="PVl7Sja935Xg6KJZl59h-57" target="PVl7Sja935Xg6KJZl59h-84">
          <mxGeometry relative="1" as="geometry" />
        </mxCell>
        <mxCell id="PVl7Sja935Xg6KJZl59h-57" value="User Interface Handling" style="rounded=1;whiteSpace=wrap;html=1;absoluteArcSize=1;arcSize=14;strokeWidth=3;fillColor=#0080ff;fontSize=20;" vertex="1" parent="WIyWlLk6GJQsqaUBKTNV-1">
          <mxGeometry x="275" y="989" width="200" height="60" as="geometry" />
        </mxCell>
        <mxCell id="PVl7Sja935Xg6KJZl59h-72" value="&lt;div style=&quot;font-size: 17px;&quot;&gt;config.h&lt;br style=&quot;font-size: 17px;&quot;&gt;&lt;/div&gt;&lt;div style=&quot;font-size: 17px;&quot;&gt;main.{ino,h}&lt;/div&gt;&lt;div style=&quot;font-size: 17px;&quot;&gt;&lt;br style=&quot;font-size: 17px;&quot;&gt;&lt;/div&gt;" style="verticalLabelPosition=middle;verticalAlign=middle;html=1;shape=offPageConnector;rounded=0;size=0.5;fillColor=#c5c589;fontSize=17;strokeWidth=3;labelPosition=center;align=center;" vertex="1" parent="WIyWlLk6GJQsqaUBKTNV-1">
          <mxGeometry x="510" y="172.5" width="150" height="65" as="geometry" />
        </mxCell>
        <mxCell id="PVl7Sja935Xg6KJZl59h-76" value="&lt;div style=&quot;font-size: 17px;&quot;&gt;temp.{cpp,h}&lt;/div&gt;&lt;div style=&quot;font-size: 17px;&quot;&gt;&lt;br style=&quot;font-size: 17px;&quot;&gt;&lt;/div&gt;" style="verticalLabelPosition=middle;verticalAlign=middle;html=1;shape=offPageConnector;rounded=0;size=0.5;fillColor=#c5c589;fontSize=17;strokeWidth=3;labelPosition=center;align=center;" vertex="1" parent="WIyWlLk6GJQsqaUBKTNV-1">
          <mxGeometry x="510" y="356.5" width="150" height="65" as="geometry" />
        </mxCell>
        <mxCell id="PVl7Sja935Xg6KJZl59h-78" value="&lt;div style=&quot;font-size: 17px;&quot;&gt;data.{cpp,h}&lt;/div&gt;&lt;div style=&quot;font-size: 17px;&quot;&gt;&lt;br style=&quot;font-size: 17px;&quot;&gt;&lt;/div&gt;" style="verticalLabelPosition=middle;verticalAlign=middle;html=1;shape=offPageConnector;rounded=0;size=0.5;fillColor=#c5c589;fontSize=17;strokeWidth=3;labelPosition=center;align=center;" vertex="1" parent="WIyWlLk6GJQsqaUBKTNV-1">
          <mxGeometry x="510" y="446.5" width="150" height="65" as="geometry" />
        </mxCell>
        <mxCell id="PVl7Sja935Xg6KJZl59h-79" value="&lt;div style=&quot;font-size: 17px;&quot;&gt;control.{cpp,h}&lt;/div&gt;&lt;div style=&quot;font-size: 17px;&quot;&gt;&lt;br style=&quot;font-size: 17px;&quot;&gt;&lt;/div&gt;" style="verticalLabelPosition=middle;verticalAlign=middle;html=1;shape=offPageConnector;rounded=0;size=0.5;fillColor=#c5c589;fontSize=17;strokeWidth=3;labelPosition=center;align=center;" vertex="1" parent="WIyWlLk6GJQsqaUBKTNV-1">
          <mxGeometry x="510" y="536.5" width="150" height="65" as="geometry" />
        </mxCell>
        <mxCell id="PVl7Sja935Xg6KJZl59h-80" value="&lt;div style=&quot;font-size: 17px;&quot;&gt;relay.{cpp,h}&lt;/div&gt;&lt;div style=&quot;font-size: 17px;&quot;&gt;&lt;br style=&quot;font-size: 17px;&quot;&gt;&lt;/div&gt;" style="verticalLabelPosition=middle;verticalAlign=middle;html=1;shape=offPageConnector;rounded=0;size=0.5;fillColor=#c5c589;fontSize=17;strokeWidth=3;labelPosition=center;align=center;" vertex="1" parent="WIyWlLk6GJQsqaUBKTNV-1">
          <mxGeometry x="510" y="626.5" width="150" height="65" as="geometry" />
        </mxCell>
        <mxCell id="PVl7Sja935Xg6KJZl59h-81" value="&lt;div style=&quot;font-size: 17px;&quot;&gt;monitoring.{cpp,h}&lt;/div&gt;&lt;div style=&quot;font-size: 17px;&quot;&gt;&lt;br style=&quot;font-size: 17px;&quot;&gt;&lt;/div&gt;" style="verticalLabelPosition=middle;verticalAlign=middle;html=1;shape=offPageConnector;rounded=0;size=0.5;fillColor=#c5c589;fontSize=17;strokeWidth=3;labelPosition=center;align=center;" vertex="1" parent="WIyWlLk6GJQsqaUBKTNV-1">
          <mxGeometry x="510" y="716.5" width="150" height="65" as="geometry" />
        </mxCell>
        <mxCell id="PVl7Sja935Xg6KJZl59h-82" value="&lt;div style=&quot;font-size: 17px;&quot;&gt;sdcard.{cpp,h}&lt;/div&gt;&lt;div style=&quot;font-size: 17px;&quot;&gt;eeprom.{cpp,h}&lt;/div&gt;&lt;div style=&quot;font-size: 17px;&quot;&gt;&lt;br style=&quot;font-size: 17px;&quot;&gt;&lt;/div&gt;" style="verticalLabelPosition=middle;verticalAlign=middle;html=1;shape=offPageConnector;rounded=0;size=0.5;fillColor=#c5c589;fontSize=17;strokeWidth=3;labelPosition=center;align=center;" vertex="1" parent="WIyWlLk6GJQsqaUBKTNV-1">
          <mxGeometry x="510" y="806.5" width="150" height="65" as="geometry" />
        </mxCell>
        <mxCell id="PVl7Sja935Xg6KJZl59h-83" value="&lt;div style=&quot;font-size: 17px;&quot;&gt;serial.{cpp,h}&lt;/div&gt;&lt;div style=&quot;font-size: 17px;&quot;&gt;&lt;br style=&quot;font-size: 17px;&quot;&gt;&lt;/div&gt;" style="verticalLabelPosition=middle;verticalAlign=middle;html=1;shape=offPageConnector;rounded=0;size=0.5;fillColor=#c5c589;fontSize=17;strokeWidth=3;labelPosition=center;align=center;" vertex="1" parent="WIyWlLk6GJQsqaUBKTNV-1">
          <mxGeometry x="510" y="896.5" width="150" height="65" as="geometry" />
        </mxCell>
        <mxCell id="PVl7Sja935Xg6KJZl59h-84" value="&lt;div style=&quot;font-size: 17px;&quot;&gt;&lt;div style=&quot;font-size: 17px;&quot;&gt;lcdgui.{cpp,h}&lt;/div&gt;&lt;/div&gt;&lt;div style=&quot;font-size: 17px;&quot;&gt;&lt;br style=&quot;font-size: 17px;&quot;&gt;&lt;/div&gt;" style="verticalLabelPosition=middle;verticalAlign=middle;html=1;shape=offPageConnector;rounded=0;size=0.5;fillColor=#c5c589;fontSize=17;strokeWidth=3;labelPosition=center;align=center;" vertex="1" parent="WIyWlLk6GJQsqaUBKTNV-1">
          <mxGeometry x="510" y="986.5" width="150" height="65" as="geometry" />
        </mxCell>
      </root>
    </mxGraphModel>
  </diagram>
</mxfile>
